HIERARCHY
ROOT root
{
	OFFSET	0	13.1	24.9
	CHANNELS 6  Xposition Yposition Zposition Xrotation Yrotation Zrotation
	JOINT spine_1
	{
		OFFSET	0	9.99999	0
		CHANNELS 3  Xrotation Yrotation Zrotation
		JOINT spine_2
		{
			OFFSET	0	112	-10
			CHANNELS 3  Xrotation Yrotation Zrotation
			JOINT spine_3
			{
				OFFSET	0	206.5	19.3
				CHANNELS 3  Xrotation Yrotation Zrotation
				JOINT spine_4
				{
					OFFSET	0	110.4	14.6
					CHANNELS 3  Xrotation Yrotation Zrotation
					JOINT neck_1
					{
						OFFSET	0	71.8	-50.3
						CHANNELS 3  Xrotation Yrotation Zrotation
						JOINT neck_2
						{
							OFFSET	0	86.2	-25.8
							CHANNELS 3  Xrotation Yrotation Zrotation
							JOINT head_ee
							{
								OFFSET	0	179.8	-8.7
								CHANNELS 3  Xrotation Yrotation Zrotation
								End Site
								{
									OFFSET	1	0	0
								}
							}
						}
					}
					JOINT left_clavicle
					{
						OFFSET	-43.2	22.4	-70.8
						CHANNELS 3  Xrotation Yrotation Zrotation
						JOINT left_shoulder
						{
							OFFSET	-93.9	-5.79999	48.7
							CHANNELS 3  Xrotation Yrotation Zrotation
							JOINT left_elbow
							{
								OFFSET	-291.4	-30.8	15.2
								CHANNELS 3  Xrotation Yrotation Zrotation
								JOINT left_lowarm_twist
								{
									OFFSET	-110.7	-3.89999	13.6
									CHANNELS 3  Xrotation Yrotation Zrotation
									JOINT left_hand
									{
										OFFSET	-110.7	-3.89999	13.6
										CHANNELS 3  Xrotation Yrotation Zrotation
										JOINT left_ee
										{
											OFFSET	-80.8	-5.10001	12.1
											CHANNELS 3  Xrotation Yrotation Zrotation
											End Site
											{
												OFFSET	1	0	0
											}
										}
									}
								}
							}
						}
					}
					JOINT right_clavicle
					{
						OFFSET	43.2	22.4	-70.8
						CHANNELS 3  Xrotation Yrotation Zrotation
						JOINT right_shoulder
						{
							OFFSET	93.9	-5.79999	48.7
							CHANNELS 3  Xrotation Yrotation Zrotation
							JOINT right_elbow
							{
								OFFSET	291.4	-30.8	15.2
								CHANNELS 3  Xrotation Yrotation Zrotation
								JOINT right_lowarm_twist
								{
									OFFSET	110.7	-3.89999	13.6
									CHANNELS 3  Xrotation Yrotation Zrotation
									JOINT right_hand
									{
										OFFSET	110.7	-3.89999	13.6
										CHANNELS 3  Xrotation Yrotation Zrotation
										JOINT right_ee
										{
											OFFSET	80.8	-5.10001	12.1
											CHANNELS 3  Xrotation Yrotation Zrotation
											End Site
											{
												OFFSET	1	0	0
											}
										}
									}
								}
							}
						}
					}
				}
			}
		}
	}
	JOINT left_hip
	{
		OFFSET	-82.8	-127.5	0.300001
		CHANNELS 3  Xrotation Yrotation Zrotation
		JOINT left_knee
		{
			OFFSET	-28.2	-396.7	2.2
			CHANNELS 3  Xrotation Yrotation Zrotation
			JOINT left_ankle
			{
				OFFSET	-11.7	-411.3	35.4
				CHANNELS 3  Xrotation Yrotation Zrotation
				JOINT left_toes
				{
					OFFSET	0	-60	-88.6
					CHANNELS 3  Xrotation Yrotation Zrotation
					JOINT left_foot_ee
					{
						OFFSET	-22.5	-16.5	-42.2
						CHANNELS 3  Xrotation Yrotation Zrotation
						End Site
						{
							OFFSET	1	0	0
						}
					}
				}
			}
		}
	}
	JOINT right_hip
	{
		OFFSET	82.8	-127.5	0.300001
		CHANNELS 3  Xrotation Yrotation Zrotation
		JOINT right_knee
		{
			OFFSET	28.2	-396.7	2.2
			CHANNELS 3  Xrotation Yrotation Zrotation
			JOINT right_ankle
			{
				OFFSET	11.7	-411.3	35.4
				CHANNELS 3  Xrotation Yrotation Zrotation
				JOINT right_toes
				{
					OFFSET	0	-60	-88.6
					CHANNELS 3  Xrotation Yrotation Zrotation
					JOINT right_foot_ee
					{
						OFFSET	22.5	-16.5	-42.2
						CHANNELS 3  Xrotation Yrotation Zrotation
						End Site
						{
							OFFSET	1	0	0
						}
					}
				}
			}
		}
	}
}
MOTION
Frames: 13
Frame Time: 0.02
3557.20596494 687.742 -1519.78787275 0.973510364668 60.6170661567 3.63664199556 -0.397386 0.358435 -0.269434 -0.397424 0.374854 -0.246079 -0.399108 0.419319 -0.158875 -0.398932 0.388965 -0.223106 -8.05325 18.0193 -4.18665 -8.15462 36.5966 -0.0508897 -0.0 0.0 -0.0 2.34711 16.795 5.6232 -24.7223 -18.5037 54.2601 2.37251 -49.5993 1.09636 12.2101 0.267658 -1.53382 2.28212 -13.1093 9.83065 -0.0 0.0 -0.0 8.74012 18.2481 -16.7244 -16.6795 30.6605 -58.406 1.09874 28.5578 -0.279642 -49.8023 4.04864 -4.67252 0.571175 -7.72575 -6.93558 0.0 0.0 0.0 7.00046 4.96827 -10.6849 -43.7369 -0.721456 6.51332 29.977 2.51262 -3.89335 8.15577 -0.0 -0.0 -0.0 0.0 -0.0 -1.23362 14.0596 -5.67234 -16.0916 -0.321702 -2.44037 8.86864 -7.90536 1.26545 40.5527 -0.0 -0.0 0.0 0.0 0.0 
3555.25977907 707.345 -1520.71902406 1.23829339817 61.6918777874 3.53377568907 -0.599999 0.464395 0.0979294 -0.60011 0.457223 0.127282 -0.599124 0.417932 0.224914 -0.598915 0.448208 0.156086 -8.79367 18.0656 -3.45503 -9.0422 36.2466 0.967238 -0.0 0.0 -0.0 1.44015 17.8972 4.29253 -26.734 -17.9914 54.9205 2.40638 -49.9995 1.12223 11.7348 0.263391 -1.47327 2.44359 -13.3806 10.8099 -0.0 0.0 -0.0 8.98862 19.1245 -17.2137 -14.8483 31.3935 -58.8578 1.1686 30.0651 -0.313847 -48.6314 3.91227 -4.60942 0.521562 -6.95506 -6.30612 0.0 0.0 0.0 9.13638 5.24986 -11.6578 -48.322 -1.07919 7.12131 33.2131 3.02064 -4.22655 8.34994 -0.0 -0.0 -0.0 0.0 -0.0 -1.37028 10.8112 -5.52721 -15.2526 -0.321966 -2.31165 14.4368 -3.84483 2.02287 40.1961 -0.0 -0.0 0.0 0.0 0.0 
3514.4694921 697.621 -1530.47294397 4.54325241346 75.1743731274 -2.99200189024 -0.21209 0.130192 0.946142 -0.211595 0.069725 0.952508 -0.210152 -0.135505 0.945396 -0.211399 0.0154966 0.954931 -12.9845 19.0712 1.43831 -13.9405 35.4267 7.51938 -0.0 0.0 -0.0 0.622118 20.1832 3.26204 -31.1091 -15.0843 59.2137 1.17802 -30.2649 0.31858 10.3282 0.247821 -1.29428 2.15911 -9.74658 10.4898 -0.0 0.0 -0.0 10.8337 22.6447 -21.0671 -4.62973 34.69 -57.9662 1.30587 32.8968 -0.385552 -43.0521 3.28144 -4.27114 -0.724284 -3.7312 3.21695 0.0 0.0 0.0 22.2938 7.43788 -14.8831 -55.0925 -1.69401 7.96303 20.1838 1.60491 -2.76614 1.00387 -0.0 -0.0 -0.0 0.0 -0.0 -7.97925 4.88006 -1.38573 -10.3692 -0.286113 -1.56346 25.0361 4.70818 3.4012 39.664 -0.0 -0.0 0.0 0.0 0.0 
3502.04592733 701.854 -1533.08960593 3.94339787701 74.0011115102 -2.21094542952 -0.200947 0.445889 0.968021 -0.200507 0.383391 0.994429 -0.193424 0.162308 1.05334 -0.194824 0.326617 1.01449 -13.5589 19.1227 1.72087 -14.6044 35.4229 8.01504 -0.0 0.0 -0.0 0.57166 20.2984 3.19925 -32.4459 -14.6403 59.7638 1.03155 -27.0665 0.248293 10.4636 0.249511 -1.3115 2.05332 -8.72535 10.2105 -0.0 0.0 -0.0 11.0268 22.8542 -21.4853 -2.98139 35.095 -57.773 1.30196 32.8186 -0.383432 -42.6423 3.23646 -4.24391 -0.927148 -3.66183 4.5893 0.0 0.0 0.0 25.1556 7.24241 -14.1951 -54.2089 -1.60815 7.85732 18.0705 0.959015 -2.50392 -0.813147 0.0 0.0 -0.0 0.0 -0.0 -8.54629 4.6506 -0.822969 -10.4884 -0.287746 -1.58166 24.1761 4.57196 3.29839 39.186 -0.0 -0.0 0.0 0.0 0.0 
3492.50436921 704.761 -1530.26546553 1.98084842283 74.0434053306 -0.768033505104 -0.229194 0.669847 1.11634 -0.228699 0.597459 1.15669 -0.216003 0.336368 1.25766 -0.217818 0.530757 1.18877 -14.1711 19.275 1.24664 -15.3735 36.0666 7.87985 -0.0 0.0 -0.0 0.567448 20.6837 3.22988 -33.7344 -14.5232 60.9497 0.931017 -24.7587 0.20435 10.5076 0.250051 -1.31709 1.93846 -7.33119 10.0247 -0.0 0.0 -0.0 11.2357 23.0598 -21.9404 -1.03697 35.4695 -58.7449 1.3231 33.2403 -0.394957 -42.3591 3.20548 -4.2249 -1.31826 -3.39996 7.30372 0.0 0.0 0.0 25.958 7.29569 -13.3443 -50.6669 -1.28075 7.42087 16.6406 0.299939 -2.32369 -2.07442 0.0 0.0 -0.0 0.0 -0.0 -7.49041 4.52331 -1.02345 -9.87254 -0.278896 -1.48758 23.637 4.48592 3.23329 38.2339 -0.0 -0.0 0.0 0.0 0.0 
3481.87328341 707.852 -1528.69177582 2.24393383881 73.9429645032 -1.95489784974 -0.218099 0.768949 1.24304 -0.217503 0.688299 1.28944 -0.201221 0.397127 1.40665 -0.203456 0.614278 1.3263 -14.4601 19.3867 0.777554 -15.7607 36.5857 7.61514 -0.0 0.0 -0.0 0.543231 20.9329 3.21869 -34.6301 -14.4484 61.7605 0.862996 -23.1466 0.176732 10.5496 0.250563 -1.32242 1.85885 -6.35466 9.89571 -0.0 0.0 -0.0 11.3823 23.2036 -22.2604 0.413041 35.73 -59.4042 1.33831 33.5411 -0.403326 -42.1603 3.18378 -4.21146 -1.6086 -3.2297 9.32173 0.0 0.0 0.0 26.4376 7.32699 -12.7762 -47.9973 -1.05226 7.0792 15.6213 -0.0901688 -2.19292 -2.96229 0.0 0.0 -0.0 0.0 -0.0 -6.72109 4.42324 -1.26907 -9.58096 -0.274354 -1.44307 23.2564 4.41842 3.18697 37.5825 -0.0 -0.0 0.0 0.0 0.0 
3481.53216174 707.852 -1528.10244142 2.29464069209 74.3068641296 -2.00761506334 -0.218099 0.768949 1.24304 -0.217503 0.688299 1.28944 -0.201221 0.397127 1.40665 -0.203456 0.614278 1.3263 -14.4601 19.3867 0.777554 -15.7607 36.5857 7.61514 -0.0 0.0 -0.0 0.543231 20.9329 3.21869 -34.6301 -14.4484 61.7605 0.862996 -23.1466 0.176732 10.5496 0.250563 -1.32242 1.85885 -6.35466 9.89571 -0.0 0.0 -0.0 11.3823 23.2036 -22.2604 0.413041 35.73 -59.4042 1.33831 33.5411 -0.403326 -42.1603 3.18378 -4.21146 -1.6086 -3.2297 9.32173 0.0 0.0 0.0 26.4376 7.32699 -12.7762 -47.9973 -1.05226 7.0792 15.6213 -0.0901688 -2.19292 -2.96229 0.0 0.0 -0.0 0.0 -0.0 -6.72109 4.42324 -1.26907 -9.58096 -0.274354 -1.44307 23.2564 4.41842 3.18697 37.5825 -0.0 -0.0 0.0 0.0 0.0 
3481.39733893 704.757 -1533.40117033 -2.07651809529 74.0347759439 2.91435914554 -0.00643088 0.852379 1.23022 -0.00592061 0.772377 1.28196 0.0121092 0.486165 1.41547 0.0100034 0.703593 1.32095 -13.4516 19.5784 -0.0882618 -14.6373 37.3731 6.50005 -0.0 0.0 -0.0 0.225265 21.5052 2.82023 -36.7661 -14.0995 62.3237 0.863783 -23.1655 0.177042 10.5634 0.25073 -1.32418 1.77081 -6.40709 9.27113 -0.0 0.0 -0.0 11.6987 23.4742 -22.9558 3.07138 36.3202 -59.5023 1.36402 34.0449 -0.417625 -41.7063 3.13443 -4.18049 -2.12009 -3.05416 12.8549 0.0 0.0 0.0 29.3621 -0.0979251 -14.2289 -39.2971 -0.422659 5.89965 10.255 1.18221 -1.46633 -5.15816 0.0 0.0 -0.0 0.0 -0.0 -9.05918 5.00686 0.559161 -7.59516 -0.237396 -1.14061 22.9648 4.44779 3.15221 37.0622 -0.0 -0.0 0.0 0.0 0.0 
3470.89629614 704.642 -1532.1715602 -4.66906788962 73.9855796496 4.74603508381 0.168648 0.555292 1.50586 0.169793 0.458357 1.53813 0.182912 0.130043 1.59968 0.179543 0.38102 1.55908 -12.1301 19.6153 -1.18151 -13.1046 37.9929 4.96107 -0.0 0.0 -0.0 0.234453 21.6857 2.85206 -37.7494 -13.9341 62.7263 0.83332 -22.4308 0.165237 10.8507 0.254117 -1.36072 1.60879 -4.77761 8.85124 -0.0 0.0 -0.0 11.875 23.6043 -23.3461 4.27359 36.9101 -58.9458 1.37756 34.3079 -0.425231 -41.3878 3.09995 -4.15854 -2.53706 -2.63443 15.914 0.0 0.0 0.0 27.9794 -5.2853 -13.3993 -36.2934 -0.247951 5.47241 11.5914 3.0828 -1.64385 -4.50415 0.0 0.0 -0.0 0.0 -0.0 -7.34357 5.59956 0.344581 -9.47407 -0.272631 -1.42676 22.0241 6.1904 3.05806 36.0201 -0.0 -0.0 0.0 0.0 0.0 
3470.88429964 704.642 -1532.14993427 -4.67246475736 73.9975082058 4.74956899297 0.168648 0.555292 1.50586 0.169793 0.458357 1.53813 0.182912 0.130043 1.59968 0.179543 0.38102 1.55908 -12.1301 19.6153 -1.18151 -13.1046 37.9929 4.96107 -0.0 0.0 -0.0 0.234453 21.6857 2.85206 -37.7494 -13.9341 62.7263 0.83332 -22.4308 0.165237 10.8507 0.254117 -1.36072 1.60879 -4.77761 8.85124 -0.0 0.0 -0.0 11.875 23.6043 -23.3461 4.27359 36.9101 -58.9458 1.37756 34.3079 -0.425231 -41.3878 3.09995 -4.15854 -2.53706 -2.63443 15.914 0.0 0.0 0.0 27.9794 -5.2853 -13.3993 -36.2934 -0.247951 5.47241 11.5914 3.0828 -1.64385 -4.50415 0.0 0.0 -0.0 0.0 -0.0 -7.34357 5.59956 0.344581 -9.47407 -0.272631 -1.42676 22.0241 6.1904 3.05806 36.0201 -0.0 -0.0 0.0 0.0 0.0 
3469.02241648 709.963 -1536.43567063 -6.76883400289 73.7842709718 7.1832445735 0.256737 0.434293 1.70678 0.258299 0.324823 1.73095 0.268981 -0.0379313 1.76075 0.264735 0.240579 1.74465 -11.2009 19.6505 -1.88366 -12.0105 38.4184 3.92862 -0.0 0.0 -0.0 0.248419 21.8221 2.88599 -38.4345 -13.8187 63.0428 0.808938 -21.8371 0.156051 11.0309 0.256149 -1.38365 1.49408 -3.60702 8.55738 -0.0 0.0 -0.0 12.2646 23.8785 -24.2123 5.59365 37.499 -59.1017 1.39322 34.6101 -0.434095 -41.1636 3.07576 -4.14297 -2.83141 -2.3422 18.1053 0.0 0.0 0.0 27.0531 -8.95016 -12.8739 -33.2924 -0.0960569 5.03717 12.5248 4.44523 -1.76706 -4.04918 0.0 0.0 -0.0 0.0 -0.0 -6.19003 6.03091 0.108653 -10.7974 -0.291807 -1.62891 21.3628 7.43902 2.99235 35.2487 -0.0 -0.0 0.0 0.0 0.0 
3469.34163424 715.564 -1529.22853254 -8.34111930809 73.2553485821 8.79326218777 0.189546 0.45595 2.07438 0.191882 0.323058 2.09917 0.204983 -0.117747 2.12061 0.198774 0.218565 2.11261 -12.8537 19.5248 -1.98901 -13.9882 38.3778 4.47443 -0.0 0.0 -0.0 0.465799 22.0975 3.22045 -38.7972 -13.955 63.8225 0.792096 -21.424 0.149842 10.5491 0.250557 -1.32236 1.37732 -2.20345 8.34311 -0.0 0.0 -0.0 12.5396 24.0304 -24.8298 6.42331 37.1557 -59.0308 1.43806 35.4629 -0.459836 -40.9909 3.05716 -4.13092 -3.10891 -2.17038 20.1471 0.0 0.0 0.0 29.4398 -14.0825 -13.512 -23.9376 0.228149 3.63969 7.57269 5.77055 -1.08596 -5.87242 0.0 0.0 -0.0 0.0 -0.0 -6.84119 6.65273 0.679485 -7.76624 -0.240992 -1.16661 18.6851 9.90879 2.68531 33.2171 -0.0 -0.0 0.0 0.0 0.0 
3460.68027547 706.833 -1525.64042687 -11.8753038656 73.2209400718 12.515061198 0.468406 0.459043 2.30558 0.47131 0.311443 2.33009 0.485257 -0.165393 2.34498 0.477643 0.206925 2.34169 -13.1598 19.506 -2.74218 -14.3786 38.8199 3.89635 -0.0 0.0 -0.0 0.434729 22.2504 3.19163 -39.5049 -13.973 64.4318 0.775902 -21.0247 0.14398 9.878 0.24191 -1.23708 1.30829 -1.00711 8.36442 -0.0 0.0 -0.0 12.9771 24.0295 -25.8412 6.97424 36.9447 -58.9188 1.48175 36.2769 -0.485434 -41.152 3.0745 -4.14216 -3.55337 -1.91573 23.4712 0.0 0.0 0.0 28.111 -17.6715 -13.9507 -17.58 0.316595 2.66867 5.05618 7.2223 -0.7302 -5.68428 0.0 0.0 -0.0 0.0 -0.0 -7.24965 6.90719 0.0304394 -5.65837 -0.19127 -0.846977 16.8462 11.079 2.45859 31.6367 -0.0 -0.0 0.0 0.0 0.0 
